<?xml version="1.0" encoding="UTF-8" standalone="no"?>
<!DOCTYPE svg PUBLIC "-//W3C//DTD SVG 1.1//EN" "http://www.w3.org/Graphics/SVG/1.1/DTD/svg11.dtd">
<svg xmlns="http://www.w3.org/2000/svg">
<metadata>
This is a custom SVG webfont generated by Font Squirrel.
Copyright   : Copyright c 2011 by Atipus All rights reserved
Designer    : Atipus
Foundry     : Atipus
</metadata>
<defs>
<font id="BlanchCondensedLight" horiz-adv-x="643">
<font-face units-per-em="2048" ascent="1536" descent="-512"/>
<missing-glyph horiz-adv-x="294"/>
<glyph unicode=" " horiz-adv-x="294"/>
<glyph unicode="	" horiz-adv-x="294"/>
<glyph unicode=" " horiz-adv-x="294"/>
<glyph unicode="!" horiz-adv-x="301" d="M59 -117v1139q0 10 9 10h4q10 0 10 -10v-1139q0 -8 -10 -8h-4q-9 0 -9 8zM59 -373q0 8 9 8h4q10 0 10 -8v-76q0 -8 -10 -8h-4q-8 0 -9 8v76z"/>
<glyph unicode="#" horiz-adv-x="1085" d="M39 483v4q0 8 10 9h260v370h-260q-10 0 -10 11v4q0 8 10 8h260v465q0 8 10 8h5q8 0 8 -8v-465h239v465q0 8 9 8h6q8 0 8 -8v-465h262q8 0 8 -8v-4q0 -10 -8 -11h-262v-370h262q8 0 8 -9v-4q0 -8 -8 -8h-262v-465q0 -10 -8 -10h-6q-8 0 -9 10v465h-239v-465q0 -10 -8 -10 h-5q-10 0 -10 10v465h-260q-10 0 -10 8zM332 496h239v370h-239v-370z"/>
<glyph unicode="$" horiz-adv-x="641" d="M59 184v39q0 10 9 10h4q10 0 10 -10v-39q0 -33 12 -62.5t34 -51t50.5 -33.5t61.5 -12q66 0 112.5 47t46.5 112v156q0 20 -1 32.5t-11 28.5l-295 521q-14 23 -20 36t-11 23q-2 6 -2 14v31v158q0 72 49.5 124t120.5 56v119q0 8 9 8h6q8 0 8 -8v-119q72 -4 121 -56.5 t49 -123.5v-39q0 -10 -8 -10h-4q-10 0 -11 10v39q0 66 -47 112.5t-112 46.5q-33 0 -61.5 -12t-50.5 -33.5t-34 -51t-12 -62.5v-158q0 -20 1 -32.5t11 -28.5l295 -521q14 -23 20.5 -36l10.5 -21q2 -8 2 -47v-156q0 -37 -13.5 -68.5t-37 -56t-54 -39t-65.5 -16.5v-119 q0 -8 -8 -8h-6q-8 0 -9 8v119q-72 2 -121 55t-49 125z"/>
<glyph unicode="%" horiz-adv-x="1159" d="M59 989v193q0 76 53.5 128t129.5 52q74 0 127 -52.5t53 -127.5v-193q0 -37 -14.5 -69.5t-39 -57t-57 -39t-69.5 -14.5t-71 14.5t-58.5 39t-39 57t-14.5 69.5zM82 989q0 -66 47 -112t113 -46t111.5 46.5t45.5 111.5v193q0 33 -12 62.5t-33.5 51t-50.5 33.5t-61 12 q-66 0 -113 -47t-47 -112v-193zM317 10v328q0 37 2 45q4 12 31 57l295 523q10 16 11 28.5t1 32.5v330q0 8 11 8h4q8 0 8 -8v-330q0 -39 -2 -47q-4 -8 -10 -21.5t-21 -35.5l-295 -523q-10 -16 -11 -27.5t-1 -31.5v-328q0 -10 -8 -10h-6q-9 0 -9 10zM575 184v195 q0 76 53.5 128t129.5 52q74 0 127 -52t53 -128v-195q0 -76 -53.5 -128t-126.5 -52q-76 0 -129.5 52t-53.5 128zM598 184q0 -66 47 -112.5t113 -46.5t111.5 47t45.5 112v195q0 66 -46 113t-111 47q-66 0 -113 -47.5t-47 -112.5v-195z"/>
<glyph unicode="&amp;" horiz-adv-x="759" d="M59 180v465q0 59 33 105.5t86 64.5q-53 18 -86 64.5t-33 105.5v195q0 76 52.5 129t128.5 53h14h25q8 0 8 -8v-6q0 -8 -8 -9h-39q-66 0 -113 -47t-47 -112v-195q2 -66 48 -113t112 -47h32h45h82v129q0 10 9 11h6q8 0 8 -11v-129h129q8 0 8 -8v-4q0 -8 -8 -8h-25h-104v-797 q0 -8 -8 -8h-174q-76 0 -128.5 53t-52.5 127zM80 180q0 -33 12 -61.5t33.5 -50t51.5 -33.5t63 -12h159v782h-159q-66 0 -113 -47q-23 -23 -35 -51.5t-12 -61.5v-465z"/>
<glyph unicode="'" horiz-adv-x="301" d="M59 899v455q0 10 9 10h6q8 0 8 -10v-455q0 -10 -8 -10h-6q-9 0 -9 10z"/>
<glyph unicode="(" horiz-adv-x="438" d="M59 180v1004q0 68 43 118t109 60q8 4 8 -6v-6q0 -6 -8 -11q-55 -10 -92 -53t-37 -102v-1004q0 -59 37 -103t92 -54q8 0 8 -11v-4q0 -8 -8 -8q-66 12 -109 62t-43 118z"/>
<glyph unicode=")" horiz-adv-x="436" d="M59 8v4q0 10 9 11q55 10 92 54t37 103v1004q0 59 -37 102t-92 53q-8 4 -9 11v6q0 10 9 6q66 -10 108.5 -60.5t42.5 -117.5v-1004q0 -68 -43 -118t-108 -62q-9 0 -9 8z"/>
<glyph unicode="+" horiz-adv-x="569" d="M59 680v4q0 8 9 8h127v127q0 8 8 8h4q10 0 10 -8v-127h127q8 0 8 -8v-4q0 -10 -8 -10h-127v-125q0 -10 -10 -10h-4q-8 0 -8 10v125h-127q-9 0 -9 10z"/>
<glyph unicode="," horiz-adv-x="301" d="M59 190q0 10 9 11h6q8 0 8 -11v-454q0 -10 -8 -10h-6q-8 0 -9 10v454z"/>
<glyph unicode="-" horiz-adv-x="571" d="M59 680v4q0 8 9 8h274q8 0 8 -8v-4q0 -10 -8 -10h-274q-9 0 -9 10z"/>
<glyph unicode="." horiz-adv-x="301" d="M59 8v185q0 8 9 8h4q10 0 10 -8v-185q0 -8 -10 -8h-4q-9 0 -9 8z"/>
<glyph unicode="/" d="M59 10v326v31q0 8 2 14q2 10 9.5 23.5t21.5 35.5l295 521q10 16 11 28t1 33v332q0 8 9 8h4q10 0 10 -8v-332q0 -39 -4 -47q-2 -8 -9.5 -21.5t-19.5 -35.5l-295 -521q-10 -16 -12 -28.5t-2 -32.5v-326q0 -10 -8 -10h-4q-9 0 -9 10z"/>
<glyph unicode="0" horiz-adv-x="641" d="M59 182v1000q0 76 53.5 128t129.5 52t129 -52.5t53 -127.5v-160v-2v-8v-830q0 -76 -53.5 -129t-128.5 -53q-76 0 -129.5 53t-53.5 129zM82 182q0 -66 47 -112.5t113 -46.5t112.5 47t46.5 112v754q-4 -4 -5 -9t-5 -9l-297 -523q-10 -16 -11 -27.5t-1 -33.5v-152zM82 420 q4 4 5 9t5 9l297 523q10 16 11 27t1 30v164q0 66 -47 112.5t-112 46.5q-66 0 -113 -47t-47 -112v-762z"/>
<glyph unicode="1" horiz-adv-x="440" d="M59 1350v4q0 8 9 8h139q12 0 12 -10v-1342q0 -10 -10 -10h-4q-8 0 -8 10v1331h-129q-9 1 -9 9z"/>
<glyph unicode="2" d="M59 10v324q0 39 2 47t9.5 21.5t21.5 35.5l295 523q10 16 11 27t1 32v162q0 66 -47 112.5t-112 46.5q-66 0 -113 -47t-47 -112v-39q0 -10 -8 -10h-4q-8 0 -9 10v39q0 76 52.5 128t128.5 52t129 -52.5t53 -127.5v-162q0 -37 -2 -45q-4 -8 -11.5 -21.5t-19.5 -35.5 l-295 -523q-10 -16 -12 -27.5t-2 -33.5v-311h334q8 0 8 -9v-4q0 -10 -8 -10h-346q-9 0 -9 10z"/>
<glyph unicode="3" d="M59 182v39q0 10 9 10h4q8 0 8 -10v-39q0 -66 47 -112.5t113 -46.5t112.5 47t46.5 112v328q0 57 -36.5 101t-92.5 55q-8 0 -8 10v8q0 6 8 10q55 10 92 53.5t37 102.5v332q0 66 -47 112.5t-112 46.5q-66 0 -113 -47t-47 -112v-39q0 -8 -8 -8h-4q-8 0 -9 8v39q0 76 52.5 128 t128.5 52t129 -52.5t53 -127.5v-332q0 -59 -34 -105.5t-87 -64.5q53 -20 87 -65.5t34 -104.5v-328q0 -76 -53.5 -129t-128.5 -53q-76 0 -128.5 53t-52.5 129z"/>
<glyph unicode="4" horiz-adv-x="780" d="M59 547v151q0 39 2 47q4 8 10.5 21.5t20.5 36.5l295 520q10 20 10 31q2 8 11 8h6q8 0 8 -8q-2 -6 -2 -15q-4 -10 -11.5 -23t-19.5 -36l-295 -520q-10 -16 -12 -28.5t-2 -33.5v-139h319v186q0 8 9 9h6q8 0 8 -9v-186h129q8 0 8 -8v-4q0 -8 -8 -8h-129v-529q0 -10 -8 -10 h-6q-8 0 -9 10v529h-331q-9 0 -9 8z"/>
<glyph unicode="5" d="M59 182v39q0 10 9 10h4q10 0 10 -10v-39q0 -66 47 -112.5t113 -46.5q33 0 61.5 12t50 33.5t33.5 51.5t12 62v459q0 33 -12 62.5t-33.5 51t-50.5 34t-61 12.5h-174q-8 0 -9 8v545q0 8 9 8h346q8 0 8 -8v-4q0 -8 -8 -9h-332v-518h160q37 0 69.5 -14t57 -39t39 -58.5 t14.5 -70.5v-459q0 -37 -14.5 -70.5t-39 -58t-57 -39t-69.5 -14.5q-76 0 -129.5 53t-53.5 129z"/>
<glyph unicode="6" d="M59 182v1000q0 76 53.5 128t129.5 52q74 0 127 -52.5t53 -127.5v-39q0 -10 -8 -10h-4q-10 0 -11 10v39q0 33 -12 62.5t-33.5 51t-50.5 33.5t-61 12q-66 0 -113 -47t-47 -112v-453q23 41 64.5 67.5t95.5 26.5q37 0 69.5 -14t57 -39t39 -58.5t14.5 -70.5v-459 q0 -37 -14.5 -70.5t-39 -58t-57 -39t-69.5 -14.5q-76 0 -129.5 53t-53.5 129zM82 182q0 -66 47 -112.5t113 -46.5q33 0 61.5 12t50 33.5t33.5 51.5t12 62v459q0 33 -12 62.5t-33.5 51t-50.5 34t-61 12.5q-66 0 -113 -47t-47 -113v-459z"/>
<glyph unicode="7" horiz-adv-x="641" d="M59 10v324q0 39 4 47q2 8 9.5 21.5t19.5 35.5l295 523q10 16 12 27t2 32v321h-331q-10 0 -11 9v4q0 8 11 8h344q8 0 8 -8v-334q0 -37 -2 -45t-9.5 -21.5t-19.5 -35.5l-297 -523q-10 -16 -11 -27.5t-1 -33.5v-324q0 -10 -8 -10h-4q-11 0 -11 10z"/>
<glyph unicode="8" horiz-adv-x="641" d="M59 182v461q0 59 35 106.5t88 65.5q-53 18 -88 65.5t-35 106.5v195q0 76 53.5 128t129.5 52t129 -52.5t53 -127.5v-195q0 -59 -35 -106t-88 -66q53 -18 88 -65.5t35 -106.5v-461q0 -76 -53.5 -129t-128.5 -53q-76 0 -129.5 53t-53.5 129zM82 182q0 -66 47 -112.5 t113 -46.5t112.5 47t46.5 112v461q0 66 -47 113t-112 47q-66 0 -113 -47t-47 -113v-461zM82 987q0 -66 47 -113t113 -47t112.5 47.5t46.5 112.5v195q0 66 -47 112.5t-112 46.5q-66 0 -113 -47t-47 -112v-195z"/>
<glyph unicode="9" horiz-adv-x="641" d="M59 182v39q0 10 11 10h4q8 0 8 -10v-39q0 -66 47 -112.5t113 -46.5t112.5 47t46.5 112v584q-23 -43 -64.5 -68.5t-94.5 -25.5q-76 0 -129.5 52t-53.5 128v330q0 76 53.5 128t129.5 52t129 -52.5t53 -127.5v-1000q0 -76 -53.5 -129t-128.5 -53q-76 0 -129.5 53t-53.5 129z M82 852q0 -66 47 -113t113 -47t112.5 47t46.5 113v330q0 66 -47 112.5t-112 46.5q-66 0 -113 -47t-47 -112v-330z"/>
<glyph unicode=":" horiz-adv-x="301" d="M59 8v185q0 8 9 8h4q10 0 10 -8v-185q0 -8 -10 -8h-4q-9 0 -9 8zM59 586v184q0 8 9 8h4q10 0 10 -8v-184q0 -8 -10 -8h-4q-9 0 -9 8z"/>
<glyph unicode=";" horiz-adv-x="301" d="M59 190q0 10 9 11h6q8 0 8 -11v-454q0 -10 -8 -10h-6q-8 0 -9 10v454zM59 586v184q0 8 9 8h4q10 0 10 -8v-184q0 -8 -10 -8h-4q-9 0 -9 8z"/>
<glyph unicode="=" horiz-adv-x="571" d="M59 549v4q0 8 9 8h274q10 0 10 -8v-4q0 -10 -10 -10h-274q-9 0 -9 10zM59 809v6q0 8 9 8h274q10 0 10 -8v-6q0 -8 -10 -8h-274q-9 0 -9 8z"/>
<glyph unicode="?" horiz-adv-x="641" d="M59 -41q0 8 9 8h4q10 0 10 -8v-74q0 -10 -10 -10h-4q-8 0 -9 10v74zM59 217v123q0 39 2 47q4 8 10.5 21.5t20.5 35.5l295 521q10 16 11 28.5t1 32.5v156q0 66 -47 112.5t-112 46.5q-66 0 -112 -47t-46 -112v-39q0 -8 -10 -8h-4q-8 0 -9 8v39q0 76 52.5 129t128.5 53 t129 -53.5t53 -128.5v-156v-31q0 -8 -2 -14q-4 -10 -11.5 -23.5t-19.5 -35.5l-295 -521q-10 -16 -11 -28.5t-1 -32.5v-123q0 -10 -10 -10h-4q-9 0 -9 10z"/>
<glyph unicode="@" horiz-adv-x="1236" d="M59 182v1000q0 76 53.5 128t129.5 52h598q74 0 127 -52.5t53 -127.5v-701q0 -37 -14.5 -70.5t-39 -58t-57 -39t-69.5 -14.5h-131q-8 0 -9 10v363h-319v-363q0 -10 -8 -10h-4q-10 0 -11 10v574q0 76 53.5 129t129.5 53t128 -53.5t52 -128.5v-561h119q66 0 111.5 47 t45.5 112v701q0 66 -46 112.5t-111 46.5h-598q-66 0 -113 -47t-47 -112v-1000q0 -66 47 -112.5t113 -46.5h340q10 0 10 -9v-4q0 -10 -10 -10h-340q-76 0 -129.5 53t-53.5 129zM381 694h319v189q0 66 -47 112.5t-112 46.5q-66 0 -113 -47t-47 -112v-189z"/>
<glyph unicode="A" d="M59 8v1172q0 76 53.5 129t129.5 53q37 0 69.5 -14.5t57 -39t39 -58t14.5 -70.5v-1172q0 -8 -8 -8h-4q-10 0 -11 8v664h-317v-664q0 -8 -10 -8h-4q-9 0 -9 8zM82 694h317v486q0 33 -12 62.5t-33.5 51t-50.5 33.5t-61 12q-66 0 -113 -47t-47 -112v-486z"/>
<glyph unicode="B" d="M59 10v1340q0 12 11 12h172q76 0 129 -53.5t53 -128.5v-328q0 -59 -34 -105.5t-87 -66.5q53 -18 87 -64.5t34 -105.5v-328q0 -76 -53.5 -129t-128.5 -53h-172q-11 0 -11 10zM82 23h160q66 0 112.5 47t46.5 112v328q0 66 -47 113t-112 47h-160v-647zM82 692h160 q66 0 112.5 47t46.5 113v328q0 66 -47 112.5t-112 46.5h-160v-647z"/>
<glyph unicode="C" horiz-adv-x="620" d="M59 182v1000q0 76 53.5 128t129.5 52t128 -52.5t52 -127.5v-39q0 -10 -8 -10h-4q-8 0 -9 10v39q0 66 -47 112.5t-112 46.5q-66 0 -113 -47t-47 -112v-1000q0 -66 47 -112.5t113 -46.5t112.5 47t46.5 112v45q0 10 9 11h4q8 0 8 -11v-45q0 -76 -52.5 -129t-127.5 -53 q-76 0 -129.5 53t-53.5 129z"/>
<glyph unicode="D" d="M59 10v1340q0 12 13 12h170q76 0 128 -53.5t52 -128.5v-1000q0 -76 -52.5 -128t-127.5 -52h-170q-13 0 -13 10zM82 20h160q66 0 112.5 47.5t46.5 112.5v1000q0 66 -47 112.5t-112 46.5h-160v-1319z"/>
<glyph unicode="E" horiz-adv-x="512" d="M59 10v1340q0 12 11 12h213q8 0 8 -10v-4q0 -8 -8 -9h-201v-647h201q8 0 8 -8v-6q0 -8 -8 -8h-201v-650h201q8 0 8 -8v-4q0 -8 -8 -8h-213q-11 0 -11 10z"/>
<glyph unicode="F" horiz-adv-x="512" d="M59 8v1342q0 12 11 12h213q8 0 8 -10v-4q0 -8 -8 -9h-201v-647h201q8 0 8 -8v-6q0 -8 -8 -8h-201v-662q0 -8 -10 -8h-4q-9 0 -9 8z"/>
<glyph unicode="G" horiz-adv-x="641" d="M59 180v1000q0 76 52.5 129t128.5 53t129 -53.5t53 -128.5v-39q0 -10 -10 -11h-4q-8 0 -9 11v39q0 66 -47 112.5t-112 46.5q-66 0 -113 -47t-47 -112v-1000q0 -66 47 -113t113 -47t112.5 47.5t46.5 112.5v492h-96q-8 0 -8 8v6q0 8 8 8h109q10 0 10 -8v-506 q0 -76 -53.5 -128t-128.5 -52q-76 0 -128.5 52t-52.5 128z"/>
<glyph unicode="H" horiz-adv-x="641" d="M59 8v1344q0 10 9 10h4q8 0 8 -10v-662h319v662q0 10 9 10h4q10 0 10 -10v-1344q0 -8 -10 -8h-4q-8 0 -9 8v662h-319v-662q0 -8 -8 -8h-4q-9 0 -9 8z"/>
<glyph unicode="I" horiz-adv-x="301" d="M59 8v1344q0 10 11 10h4q8 0 8 -10v-1344q0 -8 -8 -8h-4q-11 0 -11 8z"/>
<glyph unicode="J" horiz-adv-x="641" d="M59 180v47q0 8 9 9h4q8 0 8 -9v-47q0 -66 47 -113t113 -47t112.5 47.5t46.5 112.5v1172q0 10 9 10h6q8 0 8 -10v-1172q0 -76 -53.5 -128t-128.5 -52q-76 0 -128.5 52t-52.5 128z"/>
<glyph unicode="K" d="M59 8v662v22v660q0 10 9 10h4q10 0 10 -10v-660h158q66 0 112.5 47t46.5 113v500q0 10 9 10h6q8 0 8 -10v-500q0 -59 -34 -105.5t-87 -64.5q53 -20 87 -66.5t34 -105.5v-502q0 -8 -8 -8h-6q-8 0 -9 8v502q0 66 -47 113t-112 47h-158v-662q0 -8 -10 -8h-4q-9 0 -9 8z"/>
<glyph unicode="L" horiz-adv-x="489" d="M59 10v1342q0 10 11 10h4q8 0 8 -10v-1332h201q10 0 10 -8v-4q0 -8 -10 -8h-211q-13 0 -13 10z"/>
<glyph unicode="M" horiz-adv-x="985" d="M59 8v1172q0 76 53.5 129t129.5 53q59 0 105 -34t65 -87q18 53 64 87t106 34q76 0 129 -53.5t53 -128.5v-1172q0 -8 -10 -8h-4q-8 0 -9 8v1172q0 66 -47 112.5t-112 46.5q-66 0 -113 -47t-47 -112v-1172q0 -8 -8 -8h-4q-8 0 -9 8v1172q0 66 -47 112.5t-112 46.5 q-66 0 -113 -47t-47 -112v-1172q0 -8 -8 -8h-4q-11 0 -11 8z"/>
<glyph unicode="N" d="M59 8v1172q0 76 53.5 129t129.5 53q37 0 69.5 -14.5t57 -39t39 -58t14.5 -70.5v-1172q0 -8 -8 -8h-4q-10 0 -11 8v1172q0 33 -12 62.5t-33.5 51t-50.5 33.5t-61 12q-66 0 -113 -47t-47 -112v-1172q0 -8 -8 -8h-6q-9 0 -9 8z"/>
<glyph unicode="O" d="M59 180v1000q0 76 53.5 129t129.5 53t128 -53.5t52 -128.5v-1000q0 -76 -52.5 -128t-127.5 -52q-76 0 -129.5 52t-53.5 128zM82 180q0 -66 47 -113t113 -47t112.5 47.5t46.5 112.5v1000q0 66 -47 112.5t-112 46.5q-66 0 -113 -47t-47 -112v-1000z"/>
<glyph unicode="P" horiz-adv-x="600" d="M59 8v662v22v660q0 10 11 10h172q76 0 128 -53.5t52 -128.5v-328q0 -76 -52.5 -129t-127.5 -53h-160v-662q0 -8 -8 -8h-6q-9 0 -9 8zM82 692h160q66 0 112.5 47t46.5 113v328q0 66 -47 112.5t-112 46.5h-160v-647z"/>
<glyph unicode="Q" d="M59 182v1000q0 76 53.5 129t129.5 53t128 -53.5t52 -128.5v-1000q0 -72 -49 -124t-121 -56v-123q0 -8 -8 -8h-4q-8 0 -9 8v123q-72 4 -122 56t-50 124zM82 182q0 -66 47 -112.5t113 -46.5t112.5 47t46.5 112v1000q0 66 -47 112.5t-112 46.5q-66 0 -113 -47t-47 -112 v-1000z"/>
<glyph unicode="R" horiz-adv-x="630" d="M49 8v1342q0 12 12 12h170q76 0 129.5 -53.5t53.5 -128.5v-328q0 -59 -34 -105.5t-87 -64.5q53 -20 87 -66.5t34 -105.5v-502q0 -8 -11 -8h-4q-8 0 -8 8v502q0 66 -47 113t-113 47h-159v-662q0 -8 -9 -8h-4q-10 0 -10 8zM72 692h159q66 0 113 47t47 113v328 q0 66 -47 112.5t-113 46.5h-159v-647z"/>
<glyph unicode="S" horiz-adv-x="600" d="M39 180v39q0 10 10 10h4q8 0 8 -10v-39q0 -66 47.5 -113t112.5 -47q66 0 113 47.5t47 112.5v156q0 20 -1 32.5t-11 28.5l-297 521q-12 23 -19.5 36t-9.5 23q-2 6 -3 15t-1 30v158q0 76 53 129t129 53t129 -53.5t53 -128.5v-39q0 -10 -10 -11h-4q-8 0 -8 11v39 q0 66 -47 112.5t-113 46.5t-113 -47t-47 -112v-158q0 -20 1 -31.5t12 -29.5l297 -521q12 -23 19 -36t9 -21q4 -8 4 -47v-156q0 -76 -53 -128t-129 -52t-129 52t-53 128z"/>
<glyph unicode="T" horiz-adv-x="509" d="M39 1348v4q0 10 8 10h254q8 0 8 -10v-4q0 -8 -8 -9h-117v-1331q0 -8 -8 -8h-4q-8 0 -8 8v1331h-117q-8 1 -8 9z"/>
<glyph unicode="U" d="M59 180v1172q0 10 11 10h4q8 0 8 -10v-1172q0 -66 47 -113t113 -47t112.5 47.5t46.5 112.5v1172q0 10 9 10h4q8 0 8 -10v-1172q0 -76 -52.5 -128t-127.5 -52q-76 0 -129.5 52t-53.5 128z"/>
<glyph unicode="V" d="M59 289v1065q0 8 11 8h4q8 0 8 -8v-1065q0 -14 2 -27q4 -25 18 -49l109 -190h61l109 188q8 12 12 26.5t6 24.5q2 12 2 27v1065q0 8 9 8h4q8 0 8 -8v-1065q0 -2 -3 -31t-20 -57l-112 -195q-4 -6 -8 -6h-74q-8 0 -10 6l-111 195q-16 29 -20.5 57.5t-4.5 30.5z"/>
<glyph unicode="W" horiz-adv-x="983" d="M59 289v1065q0 8 9 8h6q8 0 8 -8v-1065q0 -14 2 -27q4 -25 18 -49l109 -190h59l111 188q12 25 16 51q2 12 2 27v1065q0 8 11 8h4q8 0 8 -8v-1065q0 -14 2 -27q4 -25 18 -49l109 -190h61l109 188q8 12 12 26.5t6 24.5q2 12 2 27v1065q0 8 9 8h4q10 0 10 -8v-1065 q0 -2 -4 -31t-21 -57l-110 -195q-4 -6 -11 -6h-73q-6 0 -8 6l-113 195q-10 16 -12 28q-4 -8 -6.5 -14t-6.5 -14l-112 -195q-4 -6 -8 -6h-74q-8 0 -10 6l-111 195q-18 29 -21.5 57.5t-3.5 30.5z"/>
<glyph unicode="X" d="M59 8v326q0 53 31 100v2l137 240l-137 242v2q-31 43 -31 100v332q0 10 9 10h4q10 0 10 -10v-332q0 -29 8 -51l2 -6l148 -263l149 263l2 6q8 23 8 51v332q0 10 11 10h4q8 0 8 -10v-332q0 -57 -31 -100v-2l-137 -242l137 -240v-2q31 -47 31 -100v-326q0 -8 -8 -8h-4 q-10 0 -11 8v326q0 29 -8 51l-2 4l-149 264l-148 -264l-2 -4q-8 -23 -8 -51v-326q0 -8 -10 -8h-4q-9 0 -9 8z"/>
<glyph unicode="Y" horiz-adv-x="602" d="M39 852v500q0 10 8 10h4q10 0 10 -10v-500q0 -66 47.5 -113t112.5 -47q33 0 61.5 12.5t50 34t34 51t12.5 62.5v500q0 10 10 10h4q8 0 8 -10v-500q0 -72 -49 -125t-121 -57v-662q0 -8 -8 -8h-6q-8 0 -8 8v662q-72 4 -121 57t-49 125z"/>
<glyph unicode="Z" horiz-adv-x="620" d="M59 8v326q0 23 1 32t3 15q2 8 9.5 21.5t19.5 35.5l297 520q10 18 11 29.5t1 32.5v319h-331q-10 0 -11 9v4q0 10 11 10h344q10 0 10 -10v-332q0 -37 -4 -45q-2 -10 -9.5 -23.5t-19.5 -36.5l-297 -520q-10 -16 -11 -28.5t-1 -32.5v-314h332q10 0 10 -8v-6q0 -6 -10 -6h-344 q-11 0 -11 8z"/>
<glyph unicode="[" horiz-adv-x="509" d="M59 12v1340q0 10 13 10h211q10 0 10 -8v-4q0 -8 -10 -9h-201v-1318h201q10 0 10 -9v-4q0 -10 -10 -10h-211q-13 0 -13 12z"/>
<glyph unicode="\" d="M59 1022v332q0 8 9 8h4q8 0 8 -8v-332q0 -20 2 -32.5t12 -28.5l295 -521q12 -23 19.5 -36t9.5 -23q4 -6 4 -14v-31v-326q0 -10 -10 -10h-4q-8 0 -9 10v326q0 20 -1 32.5t-11 28.5l-295 521q-29 47 -31 57q-2 8 -2 47z"/>
<glyph unicode="]" horiz-adv-x="509" d="M59 10v4q0 8 11 9h200v1318h-200q-10 0 -11 9v4q0 8 11 8h211q12 0 12 -10v-1340q0 -12 -12 -12h-211q-11 0 -11 10z"/>
<glyph unicode="^" horiz-adv-x="612" d="M55 1561l90 161q8 8 15 9h69q10 0 15 -9l90 -161q2 -6 -4 -7h-8q-8 0 -15 7l-82 147h-61l-82 -147q-4 -6 -14 -7h-9q-8 1 -4 7z"/>
<glyph unicode="`" horiz-adv-x="452" d="M57 1722q-4 6 4 7h9q8 0 12 -7l92 -161q4 -8 -4 -9h-8q-10 0 -15 9z"/>
<glyph unicode="a" d="M59 8v1172q0 76 53.5 129t129.5 53q37 0 69.5 -14.5t57 -39t39 -58t14.5 -70.5v-1172q0 -8 -8 -8h-4q-10 0 -11 8v664h-317v-664q0 -8 -10 -8h-4q-9 0 -9 8zM82 694h317v486q0 33 -12 62.5t-33.5 51t-50.5 33.5t-61 12q-66 0 -113 -47t-47 -112v-486z"/>
<glyph unicode="b" d="M59 10v1340q0 12 11 12h172q76 0 129 -53.5t53 -128.5v-328q0 -59 -34 -105.5t-87 -66.5q53 -18 87 -64.5t34 -105.5v-328q0 -76 -53.5 -129t-128.5 -53h-172q-11 0 -11 10zM82 23h160q66 0 112.5 47t46.5 112v328q0 66 -47 113t-112 47h-160v-647zM82 692h160 q66 0 112.5 47t46.5 113v328q0 66 -47 112.5t-112 46.5h-160v-647z"/>
<glyph unicode="c" horiz-adv-x="620" d="M59 182v1000q0 76 53.5 128t129.5 52t128 -52.5t52 -127.5v-39q0 -10 -8 -10h-4q-8 0 -9 10v39q0 66 -47 112.5t-112 46.5q-66 0 -113 -47t-47 -112v-1000q0 -66 47 -112.5t113 -46.5t112.5 47t46.5 112v45q0 10 9 11h4q8 0 8 -11v-45q0 -76 -52.5 -129t-127.5 -53 q-76 0 -129.5 53t-53.5 129z"/>
<glyph unicode="d" d="M59 10v1340q0 12 13 12h170q76 0 128 -53.5t52 -128.5v-1000q0 -76 -52.5 -128t-127.5 -52h-170q-13 0 -13 10zM82 20h160q66 0 112.5 47.5t46.5 112.5v1000q0 66 -47 112.5t-112 46.5h-160v-1319z"/>
<glyph unicode="e" horiz-adv-x="512" d="M59 10v1340q0 12 11 12h213q8 0 8 -10v-4q0 -8 -8 -9h-201v-647h201q8 0 8 -8v-6q0 -8 -8 -8h-201v-650h201q8 0 8 -8v-4q0 -8 -8 -8h-213q-11 0 -11 10z"/>
<glyph unicode="f" horiz-adv-x="512" d="M59 8v1342q0 12 11 12h213q8 0 8 -10v-4q0 -8 -8 -9h-201v-647h201q8 0 8 -8v-6q0 -8 -8 -8h-201v-662q0 -8 -10 -8h-4q-9 0 -9 8z"/>
<glyph unicode="g" horiz-adv-x="641" d="M59 180v1000q0 76 52.5 129t128.5 53t129 -53.5t53 -128.5v-39q0 -10 -10 -11h-4q-8 0 -9 11v39q0 66 -47 112.5t-112 46.5q-66 0 -113 -47t-47 -112v-1000q0 -66 47 -113t113 -47t112.5 47.5t46.5 112.5v492h-96q-8 0 -8 8v6q0 8 8 8h109q10 0 10 -8v-506 q0 -76 -53.5 -128t-128.5 -52q-76 0 -128.5 52t-52.5 128z"/>
<glyph unicode="h" horiz-adv-x="641" d="M59 8v1344q0 10 9 10h4q8 0 8 -10v-662h319v662q0 10 9 10h4q10 0 10 -10v-1344q0 -8 -10 -8h-4q-8 0 -9 8v662h-319v-662q0 -8 -8 -8h-4q-9 0 -9 8z"/>
<glyph unicode="i" horiz-adv-x="301" d="M59 8v1344q0 10 11 10h4q8 0 8 -10v-1344q0 -8 -8 -8h-4q-11 0 -11 8z"/>
<glyph unicode="j" horiz-adv-x="641" d="M59 180v47q0 8 9 9h4q8 0 8 -9v-47q0 -66 47 -113t113 -47t112.5 47.5t46.5 112.5v1172q0 10 9 10h6q8 0 8 -10v-1172q0 -76 -53.5 -128t-128.5 -52q-76 0 -128.5 52t-52.5 128z"/>
<glyph unicode="k" d="M59 8v662v22v660q0 10 9 10h4q10 0 10 -10v-660h158q66 0 112.5 47t46.5 113v500q0 10 9 10h6q8 0 8 -10v-500q0 -59 -34 -105.5t-87 -64.5q53 -20 87 -66.5t34 -105.5v-502q0 -8 -8 -8h-6q-8 0 -9 8v502q0 66 -47 113t-112 47h-158v-662q0 -8 -10 -8h-4q-9 0 -9 8z"/>
<glyph unicode="l" horiz-adv-x="489" d="M59 10v1342q0 10 11 10h4q8 0 8 -10v-1332h201q10 0 10 -8v-4q0 -8 -10 -8h-211q-13 0 -13 10z"/>
<glyph unicode="m" horiz-adv-x="985" d="M59 8v1172q0 76 53.5 129t129.5 53q59 0 105 -34t65 -87q18 53 64 87t106 34q76 0 129 -53.5t53 -128.5v-1172q0 -8 -10 -8h-4q-8 0 -9 8v1172q0 66 -47 112.5t-112 46.5q-66 0 -113 -47t-47 -112v-1172q0 -8 -8 -8h-4q-8 0 -9 8v1172q0 66 -47 112.5t-112 46.5 q-66 0 -113 -47t-47 -112v-1172q0 -8 -8 -8h-4q-11 0 -11 8z"/>
<glyph unicode="n" d="M59 8v1172q0 76 53.5 129t129.5 53q37 0 69.5 -14.5t57 -39t39 -58t14.5 -70.5v-1172q0 -8 -8 -8h-4q-10 0 -11 8v1172q0 33 -12 62.5t-33.5 51t-50.5 33.5t-61 12q-66 0 -113 -47t-47 -112v-1172q0 -8 -8 -8h-6q-9 0 -9 8z"/>
<glyph unicode="o" d="M59 180v1000q0 76 53.5 129t129.5 53t128 -53.5t52 -128.5v-1000q0 -76 -52.5 -128t-127.5 -52q-76 0 -129.5 52t-53.5 128zM82 180q0 -66 47 -113t113 -47t112.5 47.5t46.5 112.5v1000q0 66 -47 112.5t-112 46.5q-66 0 -113 -47t-47 -112v-1000z"/>
<glyph unicode="p" horiz-adv-x="600" d="M59 8v662v22v660q0 10 11 10h172q76 0 128 -53.5t52 -128.5v-328q0 -76 -52.5 -129t-127.5 -53h-160v-662q0 -8 -8 -8h-6q-9 0 -9 8zM82 692h160q66 0 112.5 47t46.5 113v328q0 66 -47 112.5t-112 46.5h-160v-647z"/>
<glyph unicode="q" d="M59 182v1000q0 76 53.5 129t129.5 53t128 -53.5t52 -128.5v-1000q0 -72 -49 -124t-121 -56v-123q0 -8 -8 -8h-4q-8 0 -9 8v123q-72 4 -122 56t-50 124zM82 182q0 -66 47 -112.5t113 -46.5t112.5 47t46.5 112v1000q0 66 -47 112.5t-112 46.5q-66 0 -113 -47t-47 -112 v-1000z"/>
<glyph unicode="r" horiz-adv-x="630" d="M49 8v1342q0 12 12 12h170q76 0 129.5 -53.5t53.5 -128.5v-328q0 -59 -34 -105.5t-87 -64.5q53 -20 87 -66.5t34 -105.5v-502q0 -8 -11 -8h-4q-8 0 -8 8v502q0 66 -47 113t-113 47h-159v-662q0 -8 -9 -8h-4q-10 0 -10 8zM72 692h159q66 0 113 47t47 113v328 q0 66 -47 112.5t-113 46.5h-159v-647z"/>
<glyph unicode="s" horiz-adv-x="600" d="M39 180v39q0 10 10 10h4q8 0 8 -10v-39q0 -66 47.5 -113t112.5 -47q66 0 113 47.5t47 112.5v156q0 20 -1 32.5t-11 28.5l-297 521q-12 23 -19.5 36t-9.5 23q-2 6 -3 15t-1 30v158q0 76 53 129t129 53t129 -53.5t53 -128.5v-39q0 -10 -10 -11h-4q-8 0 -8 11v39 q0 66 -47 112.5t-113 46.5t-113 -47t-47 -112v-158q0 -20 1 -31.5t12 -29.5l297 -521q12 -23 19 -36t9 -21q4 -8 4 -47v-156q0 -76 -53 -128t-129 -52t-129 52t-53 128z"/>
<glyph unicode="t" horiz-adv-x="509" d="M39 1348v4q0 10 8 10h254q8 0 8 -10v-4q0 -8 -8 -9h-117v-1331q0 -8 -8 -8h-4q-8 0 -8 8v1331h-117q-8 1 -8 9z"/>
<glyph unicode="u" d="M59 180v1172q0 10 11 10h4q8 0 8 -10v-1172q0 -66 47 -113t113 -47t112.5 47.5t46.5 112.5v1172q0 10 9 10h4q8 0 8 -10v-1172q0 -76 -52.5 -128t-127.5 -52q-76 0 -129.5 52t-53.5 128z"/>
<glyph unicode="v" d="M59 289v1065q0 8 11 8h4q8 0 8 -8v-1065q0 -14 2 -27q4 -25 18 -49l109 -190h61l109 188q8 12 12 26.5t6 24.5q2 12 2 27v1065q0 8 9 8h4q8 0 8 -8v-1065q0 -2 -3 -31t-20 -57l-112 -195q-4 -6 -8 -6h-74q-8 0 -10 6l-111 195q-16 29 -20.5 57.5t-4.5 30.5z"/>
<glyph unicode="w" horiz-adv-x="983" d="M59 289v1065q0 8 9 8h6q8 0 8 -8v-1065q0 -14 2 -27q4 -25 18 -49l109 -190h59l111 188q12 25 16 51q2 12 2 27v1065q0 8 11 8h4q8 0 8 -8v-1065q0 -14 2 -27q4 -25 18 -49l109 -190h61l109 188q8 12 12 26.5t6 24.5q2 12 2 27v1065q0 8 9 8h4q10 0 10 -8v-1065 q0 -2 -4 -31t-21 -57l-110 -195q-4 -6 -11 -6h-73q-6 0 -8 6l-113 195q-10 16 -12 28q-4 -8 -6.5 -14t-6.5 -14l-112 -195q-4 -6 -8 -6h-74q-8 0 -10 6l-111 195q-18 29 -21.5 57.5t-3.5 30.5z"/>
<glyph unicode="x" d="M59 8v326q0 53 31 100v2l137 240l-137 242v2q-31 43 -31 100v332q0 10 9 10h4q10 0 10 -10v-332q0 -29 8 -51l2 -6l148 -263l149 263l2 6q8 23 8 51v332q0 10 11 10h4q8 0 8 -10v-332q0 -57 -31 -100v-2l-137 -242l137 -240v-2q31 -47 31 -100v-326q0 -8 -8 -8h-4 q-10 0 -11 8v326q0 29 -8 51l-2 4l-149 264l-148 -264l-2 -4q-8 -23 -8 -51v-326q0 -8 -10 -8h-4q-9 0 -9 8z"/>
<glyph unicode="y" horiz-adv-x="602" d="M39 852v500q0 10 8 10h4q10 0 10 -10v-500q0 -66 47.5 -113t112.5 -47q33 0 61.5 12.5t50 34t34 51t12.5 62.5v500q0 10 10 10h4q8 0 8 -10v-500q0 -72 -49 -125t-121 -57v-662q0 -8 -8 -8h-6q-8 0 -8 8v662q-72 4 -121 57t-49 125z"/>
<glyph unicode="z" horiz-adv-x="620" d="M59 8v326q0 23 1 32t3 15q2 8 9.5 21.5t19.5 35.5l297 520q10 18 11 29.5t1 32.5v319h-331q-10 0 -11 9v4q0 10 11 10h344q10 0 10 -10v-332q0 -37 -4 -45q-2 -10 -9.5 -23.5t-19.5 -36.5l-297 -520q-10 -16 -11 -28.5t-1 -32.5v-314h332q10 0 10 -8v-6q0 -6 -10 -6h-344 q-11 0 -11 8z"/>
<glyph unicode="¡" horiz-adv-x="301" d="M59 -115v1139q0 8 11 8h4q8 0 8 -8v-1139q0 -10 -8 -10h-4q-11 0 -11 10zM59 1280v76q0 8 11 8h4q8 0 8 -8v-76q0 -8 -8 -8h-4q-11 0 -11 8z"/>
<glyph unicode="¨" horiz-adv-x="509" d="M59 1563v75q0 8 11 9h4q8 0 8 -9v-75q0 -8 -8 -9h-4q-11 1 -11 9zM270 1563v75q0 8 9 9h4q10 0 10 -9v-75q0 -8 -10 -9h-4q-9 1 -9 9z"/>
<glyph unicode="ª" d="M59 8v1172q0 76 53.5 129t129.5 53q37 0 69.5 -14.5t57 -39t39 -58t14.5 -70.5v-1172q0 -8 -8 -8h-4q-10 0 -11 8v664h-317v-664q0 -8 -10 -8h-4q-9 0 -9 8zM82 694h317v486q0 33 -12 62.5t-33.5 51t-50.5 33.5t-61 12q-66 0 -113 -47t-47 -112v-486z"/>
<glyph unicode="­" horiz-adv-x="571" d="M59 680v4q0 8 9 8h274q8 0 8 -8v-4q0 -10 -8 -10h-274q-9 0 -9 10z"/>
<glyph unicode="¯" horiz-adv-x="1705"/>
<glyph unicode="²" d="M59 10v324q0 39 2 47t9.5 21.5t21.5 35.5l295 523q10 16 11 27t1 32v162q0 66 -47 112.5t-112 46.5q-66 0 -113 -47t-47 -112v-39q0 -10 -8 -10h-4q-8 0 -9 10v39q0 76 52.5 128t128.5 52t129 -52.5t53 -127.5v-162q0 -37 -2 -45q-4 -8 -11.5 -21.5t-19.5 -35.5 l-295 -523q-10 -16 -12 -27.5t-2 -33.5v-311h334q8 0 8 -9v-4q0 -10 -8 -10h-346q-9 0 -9 10z"/>
<glyph unicode="³" d="M59 182v39q0 10 9 10h4q8 0 8 -10v-39q0 -66 47 -112.5t113 -46.5t112.5 47t46.5 112v328q0 57 -36.5 101t-92.5 55q-8 0 -8 10v8q0 6 8 10q55 10 92 53.5t37 102.5v332q0 66 -47 112.5t-112 46.5q-66 0 -113 -47t-47 -112v-39q0 -8 -8 -8h-4q-8 0 -9 8v39q0 76 52.5 128 t128.5 52t129 -52.5t53 -127.5v-332q0 -59 -34 -105.5t-87 -64.5q53 -20 87 -65.5t34 -104.5v-328q0 -76 -53.5 -129t-128.5 -53q-76 0 -128.5 53t-52.5 129z"/>
<glyph unicode="´" horiz-adv-x="450" d="M55 1561l90 161q2 6 15 7h8q6 0 4 -7l-90 -161q-8 -8 -14 -9h-9q-8 1 -4 9z"/>
<glyph unicode="·" horiz-adv-x="1705"/>
<glyph unicode="¸" horiz-adv-x="1705"/>
<glyph unicode="¹" horiz-adv-x="440" d="M59 1350v4q0 8 9 8h139q12 0 12 -10v-1342q0 -10 -10 -10h-4q-8 0 -8 10v1331h-129q-9 1 -9 9z"/>
<glyph unicode="º" d="M59 180v1000q0 76 53.5 129t129.5 53t128 -53.5t52 -128.5v-1000q0 -76 -52.5 -128t-127.5 -52q-76 0 -129.5 52t-53.5 128zM82 180q0 -66 47 -113t113 -47t112.5 47.5t46.5 112.5v1000q0 66 -47 112.5t-112 46.5q-66 0 -113 -47t-47 -112v-1000z"/>
<glyph unicode="¿" horiz-adv-x="641" d="M59 55v156q0 39 2 47q4 8 10.5 21.5t20.5 35.5l295 523q10 16 11 27.5t1 31.5v125q0 8 9 8h6q8 0 8 -8v-125q0 -37 -2 -45l-11 -23q-7 -14 -20 -36l-295 -521q-10 -16 -11 -28.5t-1 -32.5v-156q0 -66 46 -112.5t112 -46.5t112.5 47t46.5 112v39q0 8 9 8h6q8 0 8 -8v-39 q0 -76 -53.5 -129t-128.5 -53q-37 0 -70 14.5t-57.5 39t-39 58t-14.5 70.5zM399 1278v76q0 8 9 8h6q8 0 8 -8v-76q0 -8 -8 -8h-6q-9 0 -9 8z"/>
<glyph unicode="À" d="M59 8v1172q0 76 53.5 129t129.5 53q37 0 69.5 -14.5t57 -39t39 -58t14.5 -70.5v-1172q0 -8 -8 -8h-4q-10 0 -11 8v664h-317v-664q0 -8 -10 -8h-4q-9 0 -9 8zM82 694h317v486q0 33 -12 62.5t-33.5 51t-50.5 33.5t-61 12q-66 0 -113 -47t-47 -112v-486zM104 1722q-4 6 5 7 h8q8 0 12 -7l92 -161q4 -8 -4 -9h-8q-10 0 -14 9z"/>
<glyph unicode="Á" d="M59 8v1172q0 76 53.5 129t129.5 53q37 0 69.5 -14.5t57 -39t39 -58t14.5 -70.5v-1172q0 -8 -8 -8h-4q-10 0 -11 8v664h-317v-664q0 -8 -10 -8h-4q-9 0 -9 8zM82 694h317v486q0 33 -12 62.5t-33.5 51t-50.5 33.5t-61 12q-66 0 -113 -47t-47 -112v-486zM252 1561l90 161 q2 6 14 7h9q6 0 4 -7l-90 -161q-8 -8 -15 -9h-8q-8 1 -4 9z"/>
<glyph unicode="Â" d="M59 8v1172q0 76 53.5 129t129.5 53q37 0 69.5 -14.5t57 -39t39 -58t14.5 -70.5v-1172q0 -8 -8 -8h-4q-10 0 -11 8v664h-317v-664q0 -8 -10 -8h-4q-9 0 -9 8zM82 694h317v486q0 33 -12 62.5t-33.5 51t-50.5 33.5t-61 12q-66 0 -113 -47t-47 -112v-486zM102 1561l91 161 q2 6 14 7h69q8 0 15 -7l90 -161q4 -8 -4 -9h-8q-10 0 -15 9l-82 147h-61l-84 -147q-4 -8 -12 -9h-9q-8 1 -4 9z"/>
<glyph unicode="Ã" horiz-adv-x="1705"/>
<glyph unicode="Ä" d="M59 8v1172q0 76 53.5 129t129.5 53q37 0 69.5 -14.5t57 -39t39 -58t14.5 -70.5v-1172q0 -8 -8 -8h-4q-10 0 -11 8v664h-317v-664q0 -8 -10 -8h-4q-9 0 -9 8zM82 694h317v486q0 33 -12 62.5t-33.5 51t-50.5 33.5t-61 12q-66 0 -113 -47t-47 -112v-486zM125 1563v75 q0 8 10 9h4q8 0 8 -9v-75q0 -8 -8 -9h-4q-10 1 -10 9zM336 1563v75q0 8 8 9h4q10 0 10 -9v-75q0 -8 -10 -9h-4q-8 1 -8 9z"/>
<glyph unicode="Å" horiz-adv-x="1705"/>
<glyph unicode="Æ" horiz-adv-x="1705"/>
<glyph unicode="Ç" horiz-adv-x="641" d="M59 180v1002q0 76 52.5 128t128.5 52t129 -52.5t53 -127.5v-41q0 -8 -8 -8h-6q-8 0 -9 8v41q0 66 -47 112.5t-112 46.5q-66 0 -113 -47t-47 -112v-1002q0 -66 47 -113t113 -47t112.5 47.5t46.5 112.5v47q0 8 9 9h6q8 0 8 -9v-47q0 -72 -49 -124t-121 -56v-119 q0 -8 -10 -8h-4q-8 0 -9 8v119q-72 4 -121 56t-49 124z"/>
<glyph unicode="È" horiz-adv-x="512" d="M4 10v1340q0 12 10 12h213q8 0 9 -10v-4q0 -8 -9 -9h-200v-647h200q8 0 9 -8v-6q0 -8 -9 -8h-200v-650h200q8 0 9 -8v-4q0 -8 -9 -8h-213q-10 0 -10 10zM6 1722q-4 6 4 7h8q8 0 13 -7l92 -161q4 -8 -4 -9h-8q-10 0 -15 9z"/>
<glyph unicode="É" horiz-adv-x="550" d="M59 10v1340q0 12 11 12h213q8 0 8 -10v-4q0 -8 -8 -9h-201v-647h201q8 0 8 -8v-6q0 -8 -8 -8h-201v-650h201q8 0 8 -8v-4q0 -8 -8 -8h-213q-11 0 -11 10zM172 1561l90 161q2 6 14 7h9q6 0 4 -7l-90 -161q-8 -8 -15 -9h-8q-8 1 -4 9z"/>
<glyph unicode="Ê" horiz-adv-x="512" d="M8 1561l90 161q4 8 13 9h71q8 0 13 -9l92 -161q2 -6 -6 -7h-9q-10 0 -12 7l-84 147h-59l-84 -147q-4 -6 -13 -7h-8q-10 1 -4 7zM31 10v1340q0 12 10 12h213q8 0 8 -10v-4q0 -8 -8 -9h-201v-647h201q8 0 8 -8v-6q0 -8 -8 -8h-201v-650h201q8 0 8 -8v-4q0 -8 -8 -8h-213 q-10 0 -10 10z"/>
<glyph unicode="Ë" horiz-adv-x="512" d="M59 1563v75q0 8 11 9h4q8 0 8 -9v-75q0 -8 -8 -9h-4q-11 1 -11 9zM61 10v1340q0 12 11 12h213q8 0 8 -10v-4q0 -8 -8 -9h-201v-647h201q8 0 8 -8v-6q0 -8 -8 -8h-201v-650h201q8 0 8 -8v-4q0 -8 -8 -8h-213q-11 0 -11 10zM270 1563v75q0 8 9 9h4q10 0 10 -9v-75 q0 -8 -10 -9h-4q-9 1 -9 9z"/>
<glyph unicode="Ì" horiz-adv-x="301" d="M-96 1722q-4 8 4 9h8q6 0 14 -9l90 -161q2 -6 -4 -7h-8q-12 0 -14 7zM29 8v1344q0 10 10 10h4q8 0 8 -10v-1344q0 -8 -8 -8h-4q-10 0 -10 8z"/>
<glyph unicode="Í" horiz-adv-x="301" d="M49 8v1344q0 10 10 10h4q8 0 9 -10v-1344q0 -8 -9 -8h-4q-10 0 -10 8zM72 1563l92 159q2 8 12 9h8q10 0 4 -9l-90 -159q-4 -8 -12 -9h-10q-8 1 -4 9z"/>
<glyph unicode="Î" horiz-adv-x="301" d="M-100 1563l92 159q4 8 12 9h72q8 0 12 -9l90 -159q8 -8 -4 -9h-8q-8 0 -12 9l-84 145h-60l-84 -145q-4 -8 -12 -9h-8q-10 1 -6 9zM29 8v1344q0 10 10 10h4q8 0 8 -10v-1344q0 -8 -8 -8h-4q-10 0 -10 8z"/>
<glyph unicode="Ï" horiz-adv-x="301" d="M-45 1563v75q0 8 10 9h4q8 0 8 -9v-75q0 -8 -8 -9h-4q-10 1 -10 9zM61 8v1344q0 10 11 10h4q8 0 8 -10v-1344q0 -8 -8 -8h-4q-11 0 -11 8zM166 1563v75q0 8 8 9h4q10 0 10 -9v-75q0 -8 -10 -9h-4q-8 1 -8 9z"/>
<glyph unicode="Ñ" horiz-adv-x="641" d="M59 8v1172q0 76 52.5 129t128.5 53t129 -53.5t53 -128.5v-1172q0 -8 -8 -8h-6q-8 0 -9 8v1172q0 66 -47 112.5t-112 46.5q-66 0 -113 -47t-47 -112v-1172q0 -8 -8 -8h-4q-9 0 -9 8zM125 1616v6q0 8 8 8h215q8 0 8 -8v-6q0 -8 -8 -8h-215q-8 0 -8 8z"/>
<glyph unicode="Ò" d="M59 180v1000q0 76 53.5 129t129.5 53t128 -53.5t52 -128.5v-1000q0 -76 -52.5 -128t-127.5 -52q-76 0 -129.5 52t-53.5 128zM82 180q0 -66 47 -113t113 -47t112.5 47.5t46.5 112.5v1000q0 66 -47 112.5t-112 46.5q-66 0 -113 -47t-47 -112v-1000zM102 1722q-4 8 7 9h8 q8 0 12 -9l90 -161q6 -6 -4 -7h-8q-10 0 -12 7z"/>
<glyph unicode="Ó" d="M59 180v1000q0 76 53.5 129t129.5 53t128 -53.5t52 -128.5v-1000q0 -76 -52.5 -128t-127.5 -52q-76 0 -129.5 52t-53.5 128zM82 180q0 -66 47 -113t113 -47t112.5 47.5t46.5 112.5v1000q0 66 -47 112.5t-112 46.5q-66 0 -113 -47t-47 -112v-1000zM262 1561l90 161 q4 8 13 9h8q10 0 6 -9l-92 -161q-4 -6 -13 -7h-8q-10 1 -4 7z"/>
<glyph unicode="Ô" horiz-adv-x="641" d="M59 180v1000q0 76 53.5 129t129.5 53t128 -53.5t52 -128.5v-1000q0 -76 -52.5 -128t-127.5 -52q-76 0 -129.5 52t-53.5 128zM82 180q0 -66 47 -113t113 -47t112.5 47.5t46.5 112.5v1000q0 66 -47 112.5t-112 46.5q-66 0 -113 -47t-47 -112v-1000zM100 1561l90 161 q8 8 15 9h69q10 0 15 -9l90 -161q2 -6 -4 -7h-8q-8 0 -15 7l-82 147h-61l-82 -147q-4 -6 -14 -7h-9q-8 1 -4 7z"/>
<glyph unicode="Õ" horiz-adv-x="1705"/>
<glyph unicode="Ö" d="M59 180v1000q0 76 53.5 129t129.5 53t128 -53.5t52 -128.5v-1000q0 -76 -52.5 -128t-127.5 -52q-76 0 -129.5 52t-53.5 128zM82 180q0 -66 47 -113t113 -47t112.5 47.5t46.5 112.5v1000q0 66 -47 112.5t-112 46.5q-66 0 -113 -47t-47 -112v-1000zM125 1563v75q0 8 10 9h4 q8 0 8 -9v-75q0 -8 -8 -9h-4q-10 1 -10 9zM336 1563v75q0 8 8 9h4q10 0 10 -9v-75q0 -8 -10 -9h-4q-8 1 -8 9z"/>
<glyph unicode="Ø" horiz-adv-x="1705"/>
<glyph unicode="Ù" d="M59 180v1172q0 10 11 10h4q8 0 8 -10v-1172q0 -66 47 -113t113 -47t112.5 47.5t46.5 112.5v1172q0 10 9 10h4q8 0 8 -10v-1172q0 -76 -52.5 -128t-127.5 -52q-76 0 -129.5 52t-53.5 128zM102 1722q-4 8 7 9h8q8 0 12 -9l90 -161q6 -6 -4 -7h-8q-10 0 -12 7z"/>
<glyph unicode="Ú" d="M59 180v1172q0 10 11 10h4q8 0 8 -10v-1172q0 -66 47 -113t113 -47t112.5 47.5t46.5 112.5v1172q0 10 9 10h4q8 0 8 -10v-1172q0 -76 -52.5 -128t-127.5 -52q-76 0 -129.5 52t-53.5 128zM262 1561l90 161q4 8 13 9h8q10 0 6 -9l-92 -161q-4 -6 -13 -7h-8q-10 1 -4 7z"/>
<glyph unicode="Û" d="M59 180v1172q0 10 11 10h4q8 0 8 -10v-1172q0 -66 47 -113t113 -47t112.5 47.5t46.5 112.5v1172q0 10 9 10h4q8 0 8 -10v-1172q0 -76 -52.5 -128t-127.5 -52q-76 0 -129.5 52t-53.5 128zM100 1561l90 161q8 8 15 9h69q10 0 15 -9l90 -161q2 -6 -4 -7h-8q-8 0 -15 7 l-82 147h-61l-82 -147q-4 -6 -14 -7h-9q-8 1 -4 7z"/>
<glyph unicode="Ü" d="M59 180v1172q0 10 11 10h4q8 0 8 -10v-1172q0 -66 47 -113t113 -47t112.5 47.5t46.5 112.5v1172q0 10 9 10h4q8 0 8 -10v-1172q0 -76 -52.5 -128t-127.5 -52q-76 0 -129.5 52t-53.5 128zM125 1563v75q0 8 10 9h4q8 0 8 -9v-75q0 -8 -8 -9h-4q-10 1 -10 9zM336 1563v75 q0 8 8 9h4q10 0 10 -9v-75q0 -8 -10 -9h-4q-8 1 -8 9z"/>
<glyph unicode="Ý" horiz-adv-x="1705"/>
<glyph unicode="à" d="M59 8v1172q0 76 53.5 129t129.5 53q37 0 69.5 -14.5t57 -39t39 -58t14.5 -70.5v-1172q0 -8 -8 -8h-4q-10 0 -11 8v664h-317v-664q0 -8 -10 -8h-4q-9 0 -9 8zM82 694h317v486q0 33 -12 62.5t-33.5 51t-50.5 33.5t-61 12q-66 0 -113 -47t-47 -112v-486zM104 1722q-4 6 5 7 h8q8 0 12 -7l92 -161q4 -8 -4 -9h-8q-10 0 -14 9z"/>
<glyph unicode="á" d="M59 8v1172q0 76 53.5 129t129.5 53q37 0 69.5 -14.5t57 -39t39 -58t14.5 -70.5v-1172q0 -8 -8 -8h-4q-10 0 -11 8v664h-317v-664q0 -8 -10 -8h-4q-9 0 -9 8zM82 694h317v486q0 33 -12 62.5t-33.5 51t-50.5 33.5t-61 12q-66 0 -113 -47t-47 -112v-486zM252 1561l90 161 q2 6 14 7h9q6 0 4 -7l-90 -161q-8 -8 -15 -9h-8q-8 1 -4 9z"/>
<glyph unicode="â" d="M59 8v1172q0 76 53.5 129t129.5 53q37 0 69.5 -14.5t57 -39t39 -58t14.5 -70.5v-1172q0 -8 -8 -8h-4q-10 0 -11 8v664h-317v-664q0 -8 -10 -8h-4q-9 0 -9 8zM82 694h317v486q0 33 -12 62.5t-33.5 51t-50.5 33.5t-61 12q-66 0 -113 -47t-47 -112v-486zM102 1561l91 161 q2 6 14 7h69q8 0 15 -7l90 -161q4 -8 -4 -9h-8q-10 0 -15 9l-82 147h-61l-84 -147q-4 -8 -12 -9h-9q-8 1 -4 9z"/>
<glyph unicode="ã" d="M59 8v1172q0 76 53.5 129t129.5 53q37 0 69.5 -14.5t57 -39t39 -58t14.5 -70.5v-1172q0 -8 -8 -8h-4q-10 0 -11 8v664h-317v-664q0 -8 -10 -8h-4q-9 0 -9 8zM82 694h317v486q0 33 -12 62.5t-33.5 51t-50.5 33.5t-61 12q-66 0 -113 -47t-47 -112v-486z"/>
<glyph unicode="ä" d="M59 8v1172q0 76 53.5 129t129.5 53q37 0 69.5 -14.5t57 -39t39 -58t14.5 -70.5v-1172q0 -8 -8 -8h-4q-10 0 -11 8v664h-317v-664q0 -8 -10 -8h-4q-9 0 -9 8zM82 694h317v486q0 33 -12 62.5t-33.5 51t-50.5 33.5t-61 12q-66 0 -113 -47t-47 -112v-486zM125 1563v75 q0 8 10 9h4q8 0 8 -9v-75q0 -8 -8 -9h-4q-10 1 -10 9zM336 1563v75q0 8 8 9h4q10 0 10 -9v-75q0 -8 -10 -9h-4q-8 1 -8 9z"/>
<glyph unicode="å" d="M59 8v1172q0 76 53.5 129t129.5 53q37 0 69.5 -14.5t57 -39t39 -58t14.5 -70.5v-1172q0 -8 -8 -8h-4q-10 0 -11 8v664h-317v-664q0 -8 -10 -8h-4q-9 0 -9 8zM82 694h317v486q0 33 -12 62.5t-33.5 51t-50.5 33.5t-61 12q-66 0 -113 -47t-47 -112v-486z"/>
<glyph unicode="ç" horiz-adv-x="641" d="M59 180v1002q0 76 52.5 128t128.5 52t129 -52.5t53 -127.5v-41q0 -8 -8 -8h-6q-8 0 -9 8v41q0 66 -47 112.5t-112 46.5q-66 0 -113 -47t-47 -112v-1002q0 -66 47 -113t113 -47t112.5 47.5t46.5 112.5v47q0 8 9 9h6q8 0 8 -9v-47q0 -72 -49 -124t-121 -56v-119 q0 -8 -10 -8h-4q-8 0 -9 8v119q-72 4 -121 56t-49 124z"/>
<glyph unicode="è" horiz-adv-x="512" d="M4 10v1340q0 12 10 12h213q8 0 9 -10v-4q0 -8 -9 -9h-200v-647h200q8 0 9 -8v-6q0 -8 -9 -8h-200v-650h200q8 0 9 -8v-4q0 -8 -9 -8h-213q-10 0 -10 10zM6 1722q-4 6 4 7h8q8 0 13 -7l92 -161q4 -8 -4 -9h-8q-10 0 -15 9z"/>
<glyph unicode="é" horiz-adv-x="550" d="M59 10v1340q0 12 11 12h213q8 0 8 -10v-4q0 -8 -8 -9h-201v-647h201q8 0 8 -8v-6q0 -8 -8 -8h-201v-650h201q8 0 8 -8v-4q0 -8 -8 -8h-213q-11 0 -11 10zM172 1561l90 161q2 6 14 7h9q6 0 4 -7l-90 -161q-8 -8 -15 -9h-8q-8 1 -4 9z"/>
<glyph unicode="ê" horiz-adv-x="512" d="M8 1561l90 161q4 8 13 9h71q8 0 13 -9l92 -161q2 -6 -6 -7h-9q-10 0 -12 7l-84 147h-59l-84 -147q-4 -6 -13 -7h-8q-10 1 -4 7zM31 10v1340q0 12 10 12h213q8 0 8 -10v-4q0 -8 -8 -9h-201v-647h201q8 0 8 -8v-6q0 -8 -8 -8h-201v-650h201q8 0 8 -8v-4q0 -8 -8 -8h-213 q-10 0 -10 10z"/>
<glyph unicode="ë" horiz-adv-x="512" d="M59 1563v75q0 8 11 9h4q8 0 8 -9v-75q0 -8 -8 -9h-4q-11 1 -11 9zM61 10v1340q0 12 11 12h213q8 0 8 -10v-4q0 -8 -8 -9h-201v-647h201q8 0 8 -8v-6q0 -8 -8 -8h-201v-650h201q8 0 8 -8v-4q0 -8 -8 -8h-213q-11 0 -11 10zM270 1563v75q0 8 9 9h4q10 0 10 -9v-75 q0 -8 -10 -9h-4q-9 1 -9 9z"/>
<glyph unicode="ì" horiz-adv-x="301" d="M-96 1722q-4 8 4 9h8q6 0 14 -9l90 -161q2 -6 -4 -7h-8q-12 0 -14 7zM29 8v1344q0 10 10 10h4q8 0 8 -10v-1344q0 -8 -8 -8h-4q-10 0 -10 8z"/>
<glyph unicode="í" horiz-adv-x="301" d="M49 8v1344q0 10 10 10h4q8 0 9 -10v-1344q0 -8 -9 -8h-4q-10 0 -10 8zM72 1563l92 159q2 8 12 9h8q10 0 4 -9l-90 -159q-4 -8 -12 -9h-10q-8 1 -4 9z"/>
<glyph unicode="î" horiz-adv-x="301" d="M-100 1563l92 159q4 8 12 9h72q8 0 12 -9l90 -159q8 -8 -4 -9h-8q-8 0 -12 9l-84 145h-60l-84 -145q-4 -8 -12 -9h-8q-10 1 -6 9zM29 8v1344q0 10 10 10h4q8 0 8 -10v-1344q0 -8 -8 -8h-4q-10 0 -10 8z"/>
<glyph unicode="ï" horiz-adv-x="301" d="M-45 1563v75q0 8 10 9h4q8 0 8 -9v-75q0 -8 -8 -9h-4q-10 1 -10 9zM61 8v1344q0 10 11 10h4q8 0 8 -10v-1344q0 -8 -8 -8h-4q-11 0 -11 8zM166 1563v75q0 8 8 9h4q10 0 10 -9v-75q0 -8 -10 -9h-4q-8 1 -8 9z"/>
<glyph unicode="ñ" horiz-adv-x="641" d="M59 8v1172q0 76 52.5 129t128.5 53t129 -53.5t53 -128.5v-1172q0 -8 -8 -8h-6q-8 0 -9 8v1172q0 66 -47 112.5t-112 46.5q-66 0 -113 -47t-47 -112v-1172q0 -8 -8 -8h-4q-9 0 -9 8zM125 1616v6q0 8 8 8h215q8 0 8 -8v-6q0 -8 -8 -8h-215q-8 0 -8 8z"/>
<glyph unicode="ò" d="M59 180v1000q0 76 53.5 129t129.5 53t128 -53.5t52 -128.5v-1000q0 -76 -52.5 -128t-127.5 -52q-76 0 -129.5 52t-53.5 128zM82 180q0 -66 47 -113t113 -47t112.5 47.5t46.5 112.5v1000q0 66 -47 112.5t-112 46.5q-66 0 -113 -47t-47 -112v-1000zM102 1722q-4 8 7 9h8 q8 0 12 -9l90 -161q6 -6 -4 -7h-8q-10 0 -12 7z"/>
<glyph unicode="ó" d="M59 180v1000q0 76 53.5 129t129.5 53t128 -53.5t52 -128.5v-1000q0 -76 -52.5 -128t-127.5 -52q-76 0 -129.5 52t-53.5 128zM82 180q0 -66 47 -113t113 -47t112.5 47.5t46.5 112.5v1000q0 66 -47 112.5t-112 46.5q-66 0 -113 -47t-47 -112v-1000zM262 1561l90 161 q4 8 13 9h8q10 0 6 -9l-92 -161q-4 -6 -13 -7h-8q-10 1 -4 7z"/>
<glyph unicode="ô" horiz-adv-x="641" d="M59 180v1000q0 76 53.5 129t129.5 53t128 -53.5t52 -128.5v-1000q0 -76 -52.5 -128t-127.5 -52q-76 0 -129.5 52t-53.5 128zM82 180q0 -66 47 -113t113 -47t112.5 47.5t46.5 112.5v1000q0 66 -47 112.5t-112 46.5q-66 0 -113 -47t-47 -112v-1000zM100 1561l90 161 q8 8 15 9h69q10 0 15 -9l90 -161q2 -6 -4 -7h-8q-8 0 -15 7l-82 147h-61l-82 -147q-4 -6 -14 -7h-9q-8 1 -4 7z"/>
<glyph unicode="õ" d="M59 180v1000q0 76 53.5 129t129.5 53t128 -53.5t52 -128.5v-1000q0 -76 -52.5 -128t-127.5 -52q-76 0 -129.5 52t-53.5 128zM82 180q0 -66 47 -113t113 -47t112.5 47.5t46.5 112.5v1000q0 66 -47 112.5t-112 46.5q-66 0 -113 -47t-47 -112v-1000z"/>
<glyph unicode="ö" d="M59 180v1000q0 76 53.5 129t129.5 53t128 -53.5t52 -128.5v-1000q0 -76 -52.5 -128t-127.5 -52q-76 0 -129.5 52t-53.5 128zM82 180q0 -66 47 -113t113 -47t112.5 47.5t46.5 112.5v1000q0 66 -47 112.5t-112 46.5q-66 0 -113 -47t-47 -112v-1000zM125 1563v75q0 8 10 9h4 q8 0 8 -9v-75q0 -8 -8 -9h-4q-10 1 -10 9zM336 1563v75q0 8 8 9h4q10 0 10 -9v-75q0 -8 -10 -9h-4q-8 1 -8 9z"/>
<glyph unicode="ù" d="M59 180v1172q0 10 11 10h4q8 0 8 -10v-1172q0 -66 47 -113t113 -47t112.5 47.5t46.5 112.5v1172q0 10 9 10h4q8 0 8 -10v-1172q0 -76 -52.5 -128t-127.5 -52q-76 0 -129.5 52t-53.5 128zM102 1722q-4 8 7 9h8q8 0 12 -9l90 -161q6 -6 -4 -7h-8q-10 0 -12 7z"/>
<glyph unicode="ú" d="M59 180v1172q0 10 11 10h4q8 0 8 -10v-1172q0 -66 47 -113t113 -47t112.5 47.5t46.5 112.5v1172q0 10 9 10h4q8 0 8 -10v-1172q0 -76 -52.5 -128t-127.5 -52q-76 0 -129.5 52t-53.5 128zM262 1561l90 161q4 8 13 9h8q10 0 6 -9l-92 -161q-4 -6 -13 -7h-8q-10 1 -4 7z"/>
<glyph unicode="û" d="M59 180v1172q0 10 11 10h4q8 0 8 -10v-1172q0 -66 47 -113t113 -47t112.5 47.5t46.5 112.5v1172q0 10 9 10h4q8 0 8 -10v-1172q0 -76 -52.5 -128t-127.5 -52q-76 0 -129.5 52t-53.5 128zM100 1561l90 161q8 8 15 9h69q10 0 15 -9l90 -161q2 -6 -4 -7h-8q-8 0 -15 7 l-82 147h-61l-82 -147q-4 -6 -14 -7h-9q-8 1 -4 7z"/>
<glyph unicode="ü" d="M59 180v1172q0 10 11 10h4q8 0 8 -10v-1172q0 -66 47 -113t113 -47t112.5 47.5t46.5 112.5v1172q0 10 9 10h4q8 0 8 -10v-1172q0 -76 -52.5 -128t-127.5 -52q-76 0 -129.5 52t-53.5 128zM125 1563v75q0 8 10 9h4q8 0 8 -9v-75q0 -8 -8 -9h-4q-10 1 -10 9zM336 1563v75 q0 8 8 9h4q10 0 10 -9v-75q0 -8 -10 -9h-4q-8 1 -8 9z"/>
<glyph unicode="ý" horiz-adv-x="602" d="M211 1493l90 161q2 6 15 7h8q6 0 4 -7l-90 -161q-8 -8 -14 -9h-9q-8 1 -4 9zM39 852v500q0 10 8 10h4q10 0 10 -10v-500q0 -66 47.5 -113t112.5 -47q33 0 61.5 12.5t50 34t34 51t12.5 62.5v500q0 10 10 10h4q8 0 8 -10v-500q0 -72 -49 -125t-121 -57v-662q0 -8 -8 -8h-6 q-8 0 -8 8v662q-72 4 -121 57t-49 125z"/>
<glyph unicode="ÿ" horiz-adv-x="602" d="M104 1493v75q0 8 11 9h4q8 0 8 -9v-75q0 -8 -8 -9h-4q-11 1 -11 9zM315 1493v75q0 8 9 9h4q10 0 10 -9v-75q0 -8 -10 -9h-4q-9 1 -9 9zM39 852v500q0 10 8 10h4q10 0 10 -10v-500q0 -66 47.5 -113t112.5 -47q33 0 61.5 12.5t50 34t34 51t12.5 62.5v500q0 10 10 10h4 q8 0 8 -10v-500q0 -72 -49 -125t-121 -57v-662q0 -8 -8 -8h-6q-8 0 -8 8v662q-72 4 -121 57t-49 125z"/>
<glyph unicode="Œ" horiz-adv-x="3411"/>
<glyph unicode="œ" horiz-adv-x="1155" d="M702 10v1340q0 12 11 12h213q8 0 8 -10v-4q0 -8 -8 -9h-201v-647h201q8 0 8 -8v-6q0 -8 -8 -8h-201v-650h201q8 0 8 -8v-4q0 -8 -8 -8h-213q-11 0 -11 10zM59 180v1000q0 76 53.5 129t129.5 53t128 -53.5t52 -128.5v-1000q0 -76 -52.5 -128t-127.5 -52q-76 0 -129.5 52 t-53.5 128zM82 180q0 -66 47 -113t113 -47t112.5 47.5t46.5 112.5v1000q0 66 -47 112.5t-112 46.5q-66 0 -113 -47t-47 -112v-1000z"/>
<glyph unicode="Ÿ" horiz-adv-x="1705"/>
<glyph unicode="ˆ" horiz-adv-x="1705"/>
<glyph unicode="˚" horiz-adv-x="1705"/>
<glyph unicode="˜" horiz-adv-x="1705"/>
<glyph unicode=" " horiz-adv-x="864"/>
<glyph unicode=" " horiz-adv-x="1730"/>
<glyph unicode=" " horiz-adv-x="864"/>
<glyph unicode=" " horiz-adv-x="1730"/>
<glyph unicode=" " horiz-adv-x="575"/>
<glyph unicode=" " horiz-adv-x="432"/>
<glyph unicode=" " horiz-adv-x="286"/>
<glyph unicode=" " horiz-adv-x="286"/>
<glyph unicode=" " horiz-adv-x="215"/>
<glyph unicode=" " horiz-adv-x="346"/>
<glyph unicode=" " horiz-adv-x="94"/>
<glyph unicode="‐" horiz-adv-x="571" d="M59 680v4q0 8 9 8h274q8 0 8 -8v-4q0 -10 -8 -10h-274q-9 0 -9 10z"/>
<glyph unicode="‑" horiz-adv-x="571" d="M59 680v4q0 8 9 8h274q8 0 8 -8v-4q0 -10 -8 -10h-274q-9 0 -9 10z"/>
<glyph unicode="‒" horiz-adv-x="571" d="M59 680v4q0 8 9 8h274q8 0 8 -8v-4q0 -10 -8 -10h-274q-9 0 -9 10z"/>
<glyph unicode="–" horiz-adv-x="1024" d="M59 670v22h744v-22h-744z"/>
<glyph unicode="—" horiz-adv-x="2048" d="M59 670v22h1768v-22h-1768z"/>
<glyph unicode="‘" horiz-adv-x="452" d="M57 1722q-4 6 4 7h9q8 0 12 -7l92 -161q4 -8 -4 -9h-8q-10 0 -15 9z"/>
<glyph unicode="’" horiz-adv-x="301" d="M59 899v455q0 10 9 10h6q8 0 8 -10v-455q0 -10 -8 -10h-6q-9 0 -9 10z"/>
<glyph unicode="…" horiz-adv-x="903" d="M661 8v185q0 8 9 8h4q10 0 10 -8v-185q0 -8 -10 -8h-4q-9 0 -9 8zM360 8v185q0 8 9 8h4q10 0 10 -8v-185q0 -8 -10 -8h-4q-9 0 -9 8zM59 8v185q0 8 9 8h4q10 0 10 -8v-185q0 -8 -10 -8h-4q-9 0 -9 8z"/>
<glyph unicode=" " horiz-adv-x="346"/>
<glyph unicode=" " horiz-adv-x="432"/>
<glyph unicode="€" horiz-adv-x="776" d="M59 549v6q0 8 9 8h127v240h-127q-8 0 -9 8v4q0 10 9 10h127v357q0 76 53 128t127 52q76 0 129 -52.5t53 -127.5v-39q0 -10 -8 -10h-6q-8 0 -8 10v39q0 66 -47.5 112.5t-112.5 46.5q-66 0 -112 -47t-46 -112v-357h125q10 0 10 -10v-4q0 -8 -10 -8h-125v-240h125 q10 0 10 -8v-6q0 -8 -10 -8h-125v-359q0 -66 46 -112.5t112 -46.5t113 47t47 112v45q0 10 8 11h6q8 0 8 -11v-45q0 -76 -53 -129t-129 -53q-37 0 -70 14.5t-57.5 39t-38.5 58t-14 70.5v359h-127q-9 0 -9 8z"/>
<glyph unicode="™" horiz-adv-x="1495" d="M569 8v1172q0 76 53.5 129t129.5 53q59 0 105 -34t65 -87q18 53 64 87t106 34q76 0 129 -53.5t53 -128.5v-1172q0 -8 -10 -8h-4q-8 0 -9 8v1172q0 66 -47 112.5t-112 46.5q-66 0 -113 -47t-47 -112v-1172q0 -8 -8 -8h-4q-8 0 -9 8v1172q0 66 -47 112.5t-112 46.5 q-66 0 -113 -47t-47 -112v-1172q0 -8 -8 -8h-4q-11 0 -11 8zM39 1348v4q0 10 8 10h254q8 0 8 -10v-4q0 -8 -8 -9h-117v-1331q0 -8 -8 -8h-4q-8 0 -8 8v1331h-117q-8 1 -8 9z"/>
<glyph unicode="" horiz-adv-x="1360" d="M0 1360h1360v-1360h-1360v1360z"/>
<glyph unicode="ﬁ" horiz-adv-x="813" d="M571 8v1344q0 10 11 10h4q8 0 8 -10v-1344q0 -8 -8 -8h-4q-11 0 -11 8zM59 8v1342q0 12 11 12h213q8 0 8 -10v-4q0 -8 -8 -9h-201v-647h201q8 0 8 -8v-6q0 -8 -8 -8h-201v-662q0 -8 -10 -8h-4q-9 0 -9 8z"/>
<glyph unicode="ﬂ" horiz-adv-x="1001" d="M571 10v1342q0 10 11 10h4q8 0 8 -10v-1332h201q10 0 10 -8v-4q0 -8 -10 -8h-211q-13 0 -13 10zM59 8v1342q0 12 11 12h213q8 0 8 -10v-4q0 -8 -8 -9h-201v-647h201q8 0 8 -8v-6q0 -8 -8 -8h-201v-662q0 -8 -10 -8h-4q-9 0 -9 8z"/>
<glyph unicode="ﬃ" horiz-adv-x="1325" d="M1083 8v1344q0 10 11 10h4q8 0 8 -10v-1344q0 -8 -8 -8h-4q-11 0 -11 8zM571 8v1342q0 12 11 12h213q8 0 8 -10v-4q0 -8 -8 -9h-201v-647h201q8 0 8 -8v-6q0 -8 -8 -8h-201v-662q0 -8 -10 -8h-4q-9 0 -9 8zM59 8v1342q0 12 11 12h213q8 0 8 -10v-4q0 -8 -8 -9h-201v-647 h201q8 0 8 -8v-6q0 -8 -8 -8h-201v-662q0 -8 -10 -8h-4q-9 0 -9 8z"/>
<glyph unicode="ﬄ" horiz-adv-x="1513" d="M1083 10v1342q0 10 11 10h4q8 0 8 -10v-1332h201q10 0 10 -8v-4q0 -8 -10 -8h-211q-13 0 -13 10zM571 8v1342q0 12 11 12h213q8 0 8 -10v-4q0 -8 -8 -9h-201v-647h201q8 0 8 -8v-6q0 -8 -8 -8h-201v-662q0 -8 -10 -8h-4q-9 0 -9 8zM59 8v1342q0 12 11 12h213q8 0 8 -10 v-4q0 -8 -8 -9h-201v-647h201q8 0 8 -8v-6q0 -8 -8 -8h-201v-662q0 -8 -10 -8h-4q-9 0 -9 8z"/>
</font>
</defs>
</svg>
